#N canvas 400 170 471 425 10;
#X obj 75 22 dumpOSC 7770;
#X obj 76 62 route /game/invaders;
#X obj 75 92 route add-shot;
#N canvas 0 0 450 300 add-shot 0;
#X restore 18 148 pd add-shot;
#X obj 117 147 route add-vader-shot;
#N canvas 0 0 450 300 add-vader-shot 0;
#X restore 42 190 pd add-vader-shot;
#X obj 217 191 route building-hit;
#N canvas 0 0 450 300 building-hit 0;
#X restore 179 223 pd building-hit;
#X obj 326 224 route invader-destroyed;
#N canvas 0 0 450 300 invader-destroyed 0;
#X obj 71 46 inlet;
#X obj 78 276 outlet~;
#X obj 160 277 outlet~;
#X obj 71 76 bng 15 250 50 0 empty empty empty 17 7 0 10 -262144 -1
-1;
#X obj 237 34 osc~ 440;
#X obj 237 199 *~;
#X obj 256 137 line~;
#X obj 319 46 r graphit;
#X obj 321 136 r graphit;
#X obj 321 203 r graphit;
#X obj 256 106 r to-line;
#X obj 319 76 tabwrite~ osc-output;
#X obj 237 256 *~ 0.1;
#X obj 321 166 tabwrite~ line-output;
#X obj 321 233 tabwrite~ product;
#X text 80 141 ramp down;
#X msg 55 164 \; pd dsp 1 \; to-line 1 \, 0 500 \;;
#X connect 0 0 3 0;
#X connect 3 0 16 0;
#X connect 4 0 5 0;
#X connect 4 0 11 0;
#X connect 5 0 12 0;
#X connect 5 0 14 0;
#X connect 6 0 5 1;
#X connect 6 0 13 0;
#X connect 7 0 11 0;
#X connect 8 0 13 0;
#X connect 9 0 14 0;
#X connect 10 0 6 0;
#X connect 12 0 1 0;
#X connect 12 0 2 0;
#X restore 328 264 pd invader-destroyed;
#X obj 332 323 dac~ 1 2;
#X connect 0 0 1 0;
#X connect 1 0 2 0;
#X connect 2 1 4 0;
#X connect 4 1 6 0;
#X connect 6 1 8 0;
#X connect 8 0 9 0;
#X connect 9 0 10 0;
#X connect 9 1 10 1;
